# xmcd
#
# Track frame offsets:
#	150
#	24268
#	37695
#	53200
#	71706
#	112147
#	132759
#	158587
#	184307
#	203356
#	214095
#
# Disc length: 3176 seconds
#
# Revision: 1
# Processed by: cddbd v1.4PL0 Copyright (c) Steve Scherf et al.
# Submitted via: audiograbber 1.82.02
#
DISCID=8f0c660b
DTITLE=Tom Principato - House On Fire
DYEAR=2003
DGENRE=Blues
TTITLE0='Till I Get What I Came Here For
TTITLE1=Apricot Brandy
TTITLE2=Voodoo Thing
TTITLE3=Crazy Mixed Up World
TTITLE4=Very Blue
TTITLE5=House On Fire
TTITLE6=Shuffle 50
TTITLE7=I Hear You Knockin'
TTITLE8=Break Out!
TTITLE9=Baptised In Muddy Water
TTITLE10=Done Your Daddy Dirty
EXTD=
EXTT0=
EXTT1=
EXTT2=
EXTT3=
EXTT4=
EXTT5=
EXTT6=
EXTT7=
EXTT8=
EXTT9=
EXTT10=
PLAYORDER=
